<svg xmlns="http://www.w3.org/2000/svg" viewBox="0 0 1200 280" width="1200" height="280" preserveAspectRatio="xMidYMid meet">
  <defs>
    <style>
      .land{fill:#eaf2ff;stroke:#cfe0f7;stroke-width:1}
    </style>
  </defs>
  <!-- 极简矢量世界轮廓（风格化示意，非精准边界） -->
  <!-- 北美洲 -->
  <path class="land" d="M100,130 C140,105 210,95 270,110 C310,120 330,145 300,160 C250,185 185,175 140,160 C115,150 90,145 100,130 Z"/>
  <!-- 南美洲 -->
  <path class="land" d="M300,190 C330,180 365,188 380,207 C392,224 372,245 342,240 C320,236 305,215 300,200 Z"/>
  <!-- 欧洲/英国附近 -->
  <path class="land" d="M820,90 C845,80 875,86 895,105 C905,115 900,128 880,130 C862,132 835,122 825,110 Z"/>
  <!-- 非洲 -->
  <path class="land" d="M780,140 C820,140 860,160 860,190 C860,210 832,232 802,224 C780,218 760,186 765,162 Z"/>
  <!-- 亚洲（风格化） -->
  <path class="land" d="M520,110 C600,90 720,88 820,110 C865,120 888,140 865,150 C820,170 700,158 600,150 C545,146 505,130 520,110 Z"/>
  <!-- 澳大利亚 -->
  <path class="land" d="M980,210 C1010,200 1050,205 1060,220 C1065,230 1040,240 1010,235 C990,232 970,220 980,210 Z"/>
</svg>
