<svg xmlns="http://www.w3.org/2000/svg" viewBox="0 0 512 160" role="img" aria-labelledby="t"><title id="t">育创湾</title>
  <defs>
    <linearGradient id="g" x1="0" y1="0" x2="1" y2="1">
      <stop offset="0%" stop-color="#2e7dff"/>
      <stop offset="100%" stop-color="#4acbff"/>
    </linearGradient>
  </defs>
  <!-- 简化版品牌图形（非商用最终稿，可替换为正式文件） -->
  <path d="M80 30c22 0 40 18 40 40s-18 40-40 40H36c-6 0-11-5-11-11V41c0-6 5-11 11-11h44z" fill="url(#g)"/>
  <path d="M432 30c-22 0-40 18-40 40s18 40 40 40h44c6 0 11-5 11-11V41c0-6-5-11-11-11h-44z" fill="url(#g)"/>
  <text x="140" y="98" font-family="Segoe UI, Arial, 'Microsoft YaHei', sans-serif" font-size="56" font-weight="700" fill="#173a7a">YU CHUANG WAN</text>
</svg>